PathFileType	4	(X/Y/Z)	13_2_23_p0_0-399_filt_butterworth.trc
DataRate	CameraRate	NumFrames	NumMarkers	Units	OrigDataRate	OrigDataStartFrame	OrigNumFrames
59.0	59.0	6	27	m	59.0	49	399
Frame#	Time	RHip			RKnee			RAnkle			RBigToe			RSmallToe			RHeel			LHip			LKnee			LAnkle			LBigToe			LSmallToe			LHeel			Neck			Head			Nose			RShoulder			RElbow			RWrist			RThumb			RIndex			RPinky			LShoulder			LElbow			LWrist			LThumb			LIndex			LPinky			
		X1	Y1	Z1	X2	Y2	Z2	X3	Y3	Z3	X4	Y4	Z4	X5	Y5	Z5	X6	Y6	Z6	X7	Y7	Z7	X8	Y8	Z8	X9	Y9	Z9	X10	Y10	Z10	X11	Y11	Z11	X12	Y12	Z12	X13	Y13	Z13	X14	Y14	Z14	X15	Y15	Z15	X16	Y16	Z16	X17	Y17	Z17	X18	Y18	Z18	X19	Y19	Z19	X20	Y20	Z20	X21	Y21	Z21	X22	Y22	Z22	X23	Y23	Z23	X24	Y24	Z24	X25	Y25	Z25	X26	Y26	Z26	X27	Y27	Z27	
49	0.8305084745762712	0.29898959656800433	0.5344410723861391	1.0472087469123004	0.3036805380505743	0.07671222672832562	1.162215482957265	0.2866053650054602	-0.3179457169185822	1.225806441175771	0.2596580260600544	-0.33953983185887027	1.046055871392279	0.32545748502078753	-0.34190363741363383	1.0794473821575001	0.26017020124332846	-0.4095273468528365	1.3154396474781145	0.09968807089034883	0.5338878575470319	1.044882365698952	0.0756446898565178	0.07167193717213277	1.1545656525582126	0.10993818478893488	-0.3447098712109172	1.2438218109680512	0.11905314312192183	-0.34851128048979524	1.050606859392518	0.0649920867355796	-0.3405450186676425	1.0747452810375584	0.12656648913505097	-0.3941391362113307	1.3117885211818365	0.18292210712102328	1.0645148121769425	1.0309936981065702	0.19001315954974402	1.295074683822443	0.9547153431776934	0.18432228297689837	1.1766926790245251	0.9235558723764363	0.3346257841739738	0.9874422685258604	1.051158528006834	0.3816271718453697	0.7245376586592832	1.0728954461018545	0.2558308915195875	0.7032157592922329	0.8878454605193971	0.19498951366595818	0.7539984594817588	0.8025924362914374	0.1622828216392399	0.7182103574082472	0.8615255447204251	0.16623359922263964	0.6603669473450954	0.8697924957329228	0.03540660704976414	0.9912168327608327	1.0669345645360748	0.025287263788132758	0.7312040166791617	1.0578024463122562	0.13271310903269767	0.7153968467396707	0.8691423962495721	0.17446103793392237	0.7452834006100656	0.8254767847442773	0.18676554676304818	0.7220210106137354	0.7983418855065225	0.1913135996312153	0.6678897613516869	0.8345252679115581	
50	0.847457627118644	0.2989443301124052	0.5344703617588054	1.04718255925293	0.30334046091792405	0.07647330844429012	1.1635780062502339	0.28616921931019257	-0.3184378156286251	1.2270649667756262	0.2596837760520929	-0.33937806698894174	1.045965227026601	0.32632887453233117	-0.342663974571763	1.0810651210406474	0.2600039812017357	-0.4087139215398364	1.3152072363155256	0.09943916878778064	0.5338657620638646	1.045874029401254	0.07565943770686047	0.07149613924818371	1.1545236432071777	0.1096410307768458	-0.34404253584869815	1.2423751008807746	0.1188802449955772	-0.349456229957976	1.0507758587426537	0.06480847763456055	-0.33971548346875474	1.0751791045926329	0.12633977510127317	-0.3936368062917889	1.31068738058288	0.18200050635481074	1.0637530810285964	1.0336020872483203	0.19002474938371236	1.2950510096484993	0.9547898583579061	0.18431105695085348	1.1766730592588737	0.9235342022363631	0.33430960516610086	0.9880836963870271	1.05102568682515	0.38159248790003575	0.7252062179518831	1.073031546698946	0.25584463375691635	0.7032145806338582	0.8877864585579505	0.19530992248511733	0.7537449865163195	0.8023215688892408	0.16233714321301415	0.718114219625716	0.8614344397512215	0.16687445702449918	0.6594298268556769	0.8701655253005658	0.035372333723090246	0.991917888562765	1.0668975343860296	0.0253124630296465	0.7319661183008794	1.058066671995419	0.13241090271509579	0.7152204562458127	0.8690801369823158	0.17445748238454598	0.744724896418685	0.8263572579834764	0.18761332664044778	0.7201343612095205	0.800782568958649	0.19109172708389077	0.6669926050015781	0.8356454409918217	
51	0.864406779661017	0.298824860375395	0.5344284352687485	1.0473824971124563	0.3029758908072934	0.0761655169860469	1.1649738387667257	0.28565450853364555	-0.31922087952006745	1.228704382887068	0.2597065804491656	-0.3390222540407067	1.0458435685870715	0.3271667672156071	-0.34287395065577747	1.081695895953693	0.25983917532397166	-0.40787954561464707	1.3150205807319868	0.0992550880231957	0.5338049080050895	1.046880687451845	0.07567977958672789	0.07124753551231039	1.1544815347392239	0.10942173135326262	-0.34357606544657576	1.2413485363994294	0.1187001293490252	-0.3503501182996282	1.0509577663595244	0.06462253713992658	-0.3390322372187341	1.0755625888327243	0.12615348636543694	-0.39323813010179376	1.3098130216604262	0.18110870144308838	1.0632890711280094	1.0359053990161633	0.19003806933458595	1.2950320236920128	0.9548584220739341	0.18426077492455284	1.1766637218165037	0.9234892758705595	0.33373260703707386	0.9884822822625983	1.0507631335420635	0.3815844160057126	0.7255926824959518	1.0731849960368813	0.25583552420844285	0.7032052884284736	0.8877814470296306	0.19551955769638146	0.7535420595618965	0.8021219398278855	0.16236251851711309	0.7182438762665441	0.8614139750909114	0.16718331641582515	0.6584296324452127	0.870495061738866	0.03539353338649151	0.9925934952962203	1.0669744532910634	0.02535442886960563	0.7325663612568095	1.0583628430051804	0.13204683316306298	0.7152294285602925	0.8685315195267436	0.17483781998174935	0.7446312824166323	0.8263510817110492	0.18803057830746314	0.7199317627553693	0.8003092676335843	0.1908922028229867	0.6672842330311719	0.8346876765487972	
52	0.8813559322033898	0.29864223058161526	0.5343415185979912	1.0478778124621153	0.30258142277950756	0.07577390580179238	1.1664089958644963	0.28506973441625255	-0.32027544101013683	1.230694179713105	0.25972562702489105	-0.33854962407138867	1.045711534633353	0.32786592228395117	-0.34274578464675987	1.0816593371323662	0.2596888306131487	-0.4070859366482303	1.3149002405915218	0.09913506143116828	0.5336892254414035	1.0478703642864318	0.07568603228804474	0.07101703490495115	1.1544174642534821	0.10928413419890848	-0.34331527944904444	1.240755917265311	0.11853883865555997	-0.35106460848598336	1.0511307860021453	0.0644422409766407	-0.3386540697984669	1.0758688450553076	0.1260072372134631	-0.3929375018418218	1.3091453677693814	0.18037566381535022	1.063151942698396	1.03763080676084	0.1900509403052981	1.2950226258385067	0.9549008204660827	0.18416346510524662	1.1766682756129587	0.9234168259413276	0.33298142047490653	0.9886123690486817	1.0504177680021363	0.3815895374091124	0.725756938569035	1.0733139747461853	0.25577951872323446	0.703166888872137	0.8879460825212062	0.19563369796342153	0.753376917313455	0.8020790502049784	0.16237435156152216	0.7186075542323345	0.8614807126749473	0.1670543664613609	0.6574568393431128	0.8708081483237822	0.035474450991729016	0.9932495118317245	1.0671211255978184	0.025361434381754637	0.7328901427161313	1.0584331586083713	0.13152921129818348	0.7154668026358433	0.8677193907445351	0.17517074136790806	0.7451579340853826	0.8257604130043041	0.18792327518373692	0.7215882609030848	0.7964969839640204	0.19064563437888188	0.6688455165316912	0.8318919793648414	
53	0.8983050847457628	0.29844371427161664	0.5342541399812732	1.0486392672347882	0.3021994613544448	0.07533512629037309	1.1677973661331416	0.2844824100026621	-0.32145678203944805	1.2327753174076577	0.25972894784269845	-0.3380971687529164	1.0455574048976815	0.32829887044668127	-0.34257447068100005	1.0814948411330882	0.2595640483188593	-0.40637351196795646	1.3148577578076932	0.09906061807244695	0.5335422064114184	1.048812008474013	0.07566793993563087	0.07086131587813366	1.1543405558358086	0.10922477216793484	-0.34325018307120153	1.2405753115665101	0.11844079004831926	-0.3515085591280631	1.051233715895881	0.0642957407729969	-0.3385901802553304	1.0760691857428484	0.12590242128160734	-0.3927352709629315	1.308676425558641	0.1799140798055402	1.06332183150963	1.03857629765526	0.19005228754501785	1.2950218550633508	0.9548755532994202	0.18409545194956317	1.1766880219338278	0.9233634735519077	0.33217158342285713	0.9885418373667731	1.0500744188469409	0.3815705838777531	0.7259623759576457	1.0733621331020455	0.2556741774437912	0.703092228309353	0.8883179351232998	0.19571409058471834	0.7533012948853428	0.8021663067578186	0.16239490014293617	0.7191399356788897	0.8616271971966831	0.1665484373653408	0.6565886517693273	0.8712066626063057	0.035532952093027946	0.9939103872446341	1.0672296100272871	0.025334637542874284	0.7328721510131767	1.0582087221788907	0.13080750002299626	0.716002190344633	0.8667410540701868	0.17508544610144477	0.7461587170544386	0.8251703450973323	0.18730205043559148	0.724701128494234	0.7899665882572295	0.19036469542244516	0.6713595220400865	0.828116031410671	
54	0.9152542372881356	0.2982722964238244	0.5342310296159122	1.0494941028589109	0.3018973266048469	0.07494261459870794	1.1689381244651718	0.28400800095055556	-0.3225232796144775	1.234505528344465	0.2596869971555411	-0.3377849894836086	1.0453118813354128	0.3284127774245996	-0.34251335456890786	1.0814871812751812	0.25947085047094653	-0.40576148127284606	1.3148920776573874	0.0989999865335463	0.5334194381469914	1.0497102274960965	0.07562510799388424	0.07080977829719182	1.1542810156403107	0.10924302154116096	-0.34337718876827195	1.240796917418604	0.11844645537191889	-0.3516628636398628	1.0511885975387938	0.06422023240875935	-0.33871134401861164	1.0761428301482758	0.1258410129491265	-0.3926366733086202	1.308411720745922	0.17975283725327856	1.0636640567624391	1.0387151164179063	0.19002178152280538	1.2950233286892558	0.954716093133875	0.1842027617756375	1.1767182979421258	0.9234191711065443	0.3314231632687503	0.9883858924130385	1.0498184322089206	0.3814938683038448	0.7265158005250449	1.0733002200400699	0.25559328750406873	0.7030331932588915	0.888650460031787	0.1958380604626527	0.7535079919013217	0.8022578720538389	0.16243061049790866	0.719740023592528	0.8618340345685764	0.16588003140203683	0.6559702987195897	0.87169763931441	0.035417967932387	0.9945975766919253	1.0671527392775557	0.025308550208971846	0.7326399653778151	1.0577561175632721	0.12974611385873333	0.7168097407159292	0.865708238243019	0.1744919415672695	0.7473952651442628	0.8250527451461629	0.1863304625397142	0.7283345666106756	0.782787217282984	0.1900772536678559	0.6743045637653905	0.8244052129631274	
